<svg width="53" height="53" viewBox="0 0 53 53" fill="none" xmlns="http://www.w3.org/2000/svg">
<path d="M23.7428 37.041V41.4394C23.7428 45.1661 20.2094 48.1777 15.859 48.1777C11.5086 48.1777 7.95312 45.1661 7.95312 41.4394V37.041C7.95312 40.7677 11.4865 43.411 15.859 43.411C20.2094 43.411 23.7428 40.746 23.7428 37.041Z" stroke="#1D8F97" stroke-width="3" stroke-linecap="round" stroke-linejoin="round"/>
<path d="M23.7393 31.0818C23.7393 32.1652 23.4302 33.1618 22.9002 34.0285C21.5972 36.1301 18.9251 37.4519 15.8335 37.4519C12.7418 37.4519 10.0697 36.1085 8.76678 34.0285C8.23678 33.1618 7.92773 32.1652 7.92773 31.0818C7.92773 29.2185 8.81102 27.5502 10.2244 26.3368C11.6598 25.1018 13.6251 24.3652 15.8114 24.3652C17.9976 24.3652 19.9631 25.1235 21.3985 26.3368C22.856 27.5285 23.7393 29.2185 23.7393 31.0818Z" stroke="#1D8F97" stroke-width="3" stroke-linecap="round" stroke-linejoin="round"/>
<path d="M23.7428 31.0811V37.0394C23.7428 40.7661 20.2094 43.4094 15.859 43.4094C11.5086 43.4094 7.95312 40.7444 7.95312 37.0394V31.0811C7.95312 27.3544 11.4865 24.3428 15.859 24.3428C18.0452 24.3428 20.0107 25.101 21.4461 26.3144C22.8595 27.5277 23.7428 29.2177 23.7428 31.0811Z" stroke="#1D8F97" stroke-width="3" stroke-linecap="round" stroke-linejoin="round"/>
<path d="M48.5827 24.2783V28.7417C48.5827 29.9334 47.611 30.9083 46.3743 30.9516H42.0459C39.6609 30.9516 37.4748 29.24 37.276 26.9C37.1435 25.535 37.6735 24.2566 38.601 23.3683C39.418 22.545 40.5443 22.0684 41.781 22.0684H46.3743C47.611 22.1117 48.5827 23.0866 48.5827 24.2783Z" stroke="#1D8F97" stroke-width="3" stroke-linecap="round" stroke-linejoin="round"/>
<path d="M4.41602 23.2594V18.9261C4.41602 13.0328 8.03769 8.9161 13.6689 8.22277C14.2431 8.1361 14.8393 8.09277 15.4577 8.09277H35.3327C35.9068 8.09277 36.4589 8.11441 36.9889 8.20108C42.6864 8.85108 46.3743 12.9894 46.3743 18.9261V22.0678H41.781C40.5443 22.0678 39.4181 22.5444 38.601 23.3677C37.6735 24.2561 37.1435 25.5344 37.276 26.8994C37.4748 29.2394 39.661 30.9511 42.046 30.9511H46.3743V34.0928C46.3743 40.5928 41.9577 44.9261 35.3327 44.9261H29.8118" stroke="#1D8F97" stroke-width="3" stroke-linecap="round" stroke-linejoin="round"/>
</svg>
