<svg width="53" height="53" viewBox="0 0 53 53" fill="none" xmlns="http://www.w3.org/2000/svg">
<path d="M25.9252 39.4459H38.9985C38.7998 39.6192 38.601 39.7709 38.4023 39.9443L28.9727 46.8776C25.8589 49.1526 20.7798 49.1526 17.6439 46.8776L8.19228 39.9443C6.11645 38.4276 4.41602 35.0692 4.41602 32.5342V16.4792C4.41602 13.8359 6.46978 10.9109 8.98728 9.97923L19.9848 5.92758C21.7956 5.25591 24.7989 5.25591 26.6098 5.92758L37.5852 9.97923C39.6831 10.7592 41.4718 12.9259 42.0239 15.1359H25.9031C25.4173 15.1359 24.9756 15.1576 24.556 15.1576C20.4706 15.3959 19.4106 16.8476 19.4106 21.4192V33.1842C19.4327 38.1676 20.7356 39.4459 25.9252 39.4459Z" stroke="#1D8F97" stroke-width="3" stroke-linecap="round" stroke-linejoin="round"/>
<path d="M19.4336 25.2979H48.5836" stroke="#1D8F97" stroke-width="3" stroke-miterlimit="10" stroke-linecap="round" stroke-linejoin="round"/>
<path d="M48.5836 21.3978V33.4228C48.5394 38.2328 47.1923 39.4244 42.0911 39.4244H25.9261C20.7365 39.4244 19.4336 38.1461 19.4336 33.1411V21.3761C19.4336 16.8261 20.4936 15.3744 24.579 15.1144C24.9986 15.1144 25.4403 15.0928 25.9261 15.0928H42.0911C47.2807 15.1144 48.5836 16.3711 48.5836 21.3978Z" stroke="#1D8F97" stroke-width="3" stroke-linecap="round" stroke-linejoin="round"/>
<path d="M24.998 34.0508H27.9351" stroke="#1D8F97" stroke-width="3" stroke-miterlimit="10" stroke-linecap="round" stroke-linejoin="round"/>
<path d="M32.5723 34.0508H39.7935" stroke="#1D8F97" stroke-width="3" stroke-miterlimit="10" stroke-linecap="round" stroke-linejoin="round"/>
</svg>
