<svg width="54" height="55" viewBox="0 0 54 55" fill="none" xmlns="http://www.w3.org/2000/svg">
<path d="M27.3958 29.2256C27.2412 29.2035 27.0423 29.2035 26.8655 29.2256C22.9764 29.093 19.8828 25.911 19.8828 21.9998C19.8828 18.0002 23.109 14.752 27.1307 14.752C31.1303 14.752 34.3785 18.0002 34.3785 21.9998C34.3565 25.911 31.2849 29.093 27.3958 29.2256Z" stroke="#1D8F97" stroke-width="3" stroke-linecap="round" stroke-linejoin="round"/>
<path d="M42.0233 43.8101C38.09 47.4119 32.8751 49.5996 27.1298 49.5996C21.3846 49.5996 16.1696 47.4119 12.2363 43.8101C12.4573 41.733 13.7831 39.7 16.1475 38.109C22.2021 34.0874 32.1017 34.0874 38.1121 38.109C40.4765 39.7 41.8023 41.733 42.0233 43.8101Z" stroke="#1D8F97" stroke-width="3" stroke-linecap="round" stroke-linejoin="round"/>
<path d="M27.1304 49.5986C39.3343 49.5986 49.2275 39.7054 49.2275 27.5015C49.2275 15.2975 39.3343 5.4043 27.1304 5.4043C14.9264 5.4043 5.0332 15.2975 5.0332 27.5015C5.0332 39.7054 14.9264 49.5986 27.1304 49.5986Z" stroke="#1D8F97" stroke-width="3" stroke-linecap="round" stroke-linejoin="round"/>
</svg>
